<svg width="154" height="82" viewBox="0 0 154 82" fill="none" xmlns="http://www.w3.org/2000/svg">
<path d="M1.13843 4.68639C0.633128 4.90931 0.404213 5.49965 0.62713 6.00495L4.25978 14.2393C4.48269 14.7446 5.07303 14.9735 5.57833 14.7506C6.08363 14.5276 6.31254 13.9373 6.08962 13.432L2.8606 6.11261L10.18 2.8836C10.6853 2.66068 10.9142 2.07034 10.6913 1.56504C10.4684 1.05975 9.87804 0.830831 9.37274 1.05375L1.13843 4.68639ZM59.0648 74.4899L59.7043 75.2586L59.0648 74.4899ZM1.18051 6.53367C17.0907 12.7032 38.9834 23.5198 53.0657 35.9043C60.1206 42.1086 65.0786 48.5889 66.4773 54.9572C67.8486 61.201 65.8404 67.5526 58.4253 73.7211L59.7043 75.2586C67.5667 68.7181 69.9951 61.6507 68.4307 54.5281C66.8936 47.53 61.5435 40.6965 54.3865 34.4024C40.0451 21.7901 17.8989 10.8715 1.90359 4.66896L1.18051 6.53367ZM58.4253 73.7211C53.7312 77.626 50.1916 78.6075 47.7694 78.0511C45.4093 77.509 43.6835 75.3925 42.8646 71.9925C41.223 65.1763 43.5466 54.1884 50.511 45.798C57.4084 37.4883 68.8538 31.7418 85.5146 35.337C102.256 38.9497 124.324 52.0131 152.231 81.5852L153.685 80.2125C125.663 50.5183 103.254 37.119 85.9365 33.382C68.5377 29.6275 56.3397 35.6444 48.972 44.5206C41.6714 53.3161 39.1081 64.9366 40.9202 72.4608C41.8282 76.2309 43.9144 79.2177 47.3216 80.0004C50.6668 80.7688 54.85 79.2968 59.7043 75.2586L58.4253 73.7211Z" fill="#CCCCCC"/>
</svg>
