<svg width="50" height="50" viewBox="0 0 50 50" fill="none" xmlns="http://www.w3.org/2000/svg">
<path fill-rule="evenodd" clip-rule="evenodd" d="M25 7.29175C15.2354 7.29175 7.29166 15.2355 7.29166 25.0001C7.29166 34.7647 15.2354 42.7084 25 42.7084C34.7646 42.7084 42.7083 34.7647 42.7083 25.0001C42.7083 15.2355 34.7646 7.29175 25 7.29175ZM25 45.8334C13.5125 45.8334 4.16666 36.4876 4.16666 25.0001C4.16666 13.5126 13.5125 4.16675 25 4.16675C36.4875 4.16675 45.8333 13.5126 45.8333 25.0001C45.8333 36.4876 36.4875 45.8334 25 45.8334Z" fill="#888888"/>
<path fill-rule="evenodd" clip-rule="evenodd" d="M28.005 33.7933C27.6071 33.7933 27.2071 33.6412 26.9029 33.337L19.6383 26.1079C19.3446 25.8141 19.18 25.4162 19.18 24.9995C19.18 24.5849 19.3446 24.187 19.6383 23.8933L26.9029 16.662C27.5133 16.0537 28.5008 16.0537 29.1112 16.6662C29.7217 17.2787 29.7175 18.2683 29.1071 18.8766L22.9571 24.9995L29.1071 31.1245C29.7175 31.7329 29.7217 32.7204 29.1112 33.3329C28.8071 33.6412 28.405 33.7933 28.005 33.7933Z" fill="#888888"/>
</svg>
