<svg width="50" height="50" viewBox="0 0 50 50" fill="none" xmlns="http://www.w3.org/2000/svg">
<path fill-rule="evenodd" clip-rule="evenodd" d="M25 7.29175C15.2354 7.29175 7.29166 15.2355 7.29166 25.0001C7.29166 34.7647 15.2354 42.7084 25 42.7084C34.7646 42.7084 42.7083 34.7647 42.7083 25.0001C42.7083 15.2355 34.7646 7.29175 25 7.29175ZM25 45.8334C13.5125 45.8334 4.16666 36.4876 4.16666 25.0001C4.16666 13.5126 13.5125 4.16675 25 4.16675C36.4875 4.16675 45.8333 13.5126 45.8333 25.0001C45.8333 36.4876 36.4875 45.8334 25 45.8334Z" fill="#888888"/>
<path fill-rule="evenodd" clip-rule="evenodd" d="M21.9971 33.7933C21.5971 33.7933 21.195 33.6412 20.8908 33.3329C20.2825 32.7204 20.2846 31.7329 20.895 31.1245L27.045 24.9995L20.895 18.8766C20.2846 18.2683 20.2825 17.2787 20.8908 16.6662C21.4992 16.0516 22.4867 16.0558 23.0992 16.662L30.3617 23.8933C30.6554 24.187 30.82 24.5849 30.82 24.9995C30.82 25.4162 30.6554 25.8141 30.3617 26.1079L23.0992 33.337C22.795 33.6412 22.395 33.7933 21.9971 33.7933Z" fill="#888888"/>
</svg>
