<svg width="30" height="30" viewBox="0 0 30 30" fill="none" xmlns="http://www.w3.org/2000/svg">
<path fill-rule="evenodd" clip-rule="evenodd" d="M19.8123 3.12593C20.601 3.12593 21.3885 3.23718 22.1373 3.48843C26.751 4.98843 28.4135 10.0509 27.0248 14.4759C26.2373 16.7372 24.9498 18.8009 23.2635 20.4872C20.8498 22.8247 18.201 24.8997 15.3498 26.6872L15.0373 26.8759L14.7123 26.6747C11.851 24.8997 9.18728 22.8247 6.75103 20.4747C5.07603 18.7884 3.78728 16.7372 2.98728 14.4759C1.57478 10.0509 3.23728 4.98843 7.90103 3.46218C8.26353 3.33718 8.63728 3.24968 9.01228 3.20093H9.16228C9.51353 3.14968 9.86228 3.12593 10.2123 3.12593H10.3498C11.1373 3.14968 11.8998 3.28718 12.6385 3.53843H12.7123C12.7623 3.56218 12.7998 3.58843 12.8248 3.61218C13.101 3.70093 13.3623 3.80093 13.6123 3.93843L14.0873 4.15093C14.2021 4.21215 14.3309 4.30568 14.4422 4.38652C14.5128 4.43774 14.5763 4.48386 14.6248 4.51343C14.6452 4.52547 14.6659 4.53757 14.6868 4.54977C14.794 4.61234 14.9056 4.67751 14.9998 4.74968C16.3885 3.68843 18.0748 3.11343 19.8123 3.12593ZM23.1373 12.1259C23.6498 12.1122 24.0873 11.7009 24.1248 11.1747V11.0259C24.1623 9.27468 23.101 7.68843 21.4873 7.07593C20.9748 6.89968 20.4123 7.17593 20.2248 7.70093C20.0498 8.22593 20.3248 8.80093 20.8498 8.98718C21.651 9.28718 22.1873 10.0759 22.1873 10.9497V10.9884C22.1635 11.2747 22.2498 11.5509 22.4248 11.7634C22.5998 11.9759 22.8623 12.0997 23.1373 12.1259Z" fill="#FF0000"/>
</svg>
