<svg width="18" height="16" viewBox="0 0 18 16" fill="none" xmlns="http://www.w3.org/2000/svg">
<path fill-rule="evenodd" clip-rule="evenodd" d="M12.2082 0.0839191C12.734 0.0839191 13.259 0.158086 13.7582 0.325586C16.834 1.32559 17.9423 4.70059 17.0165 7.65059C16.4915 9.15808 15.6332 10.5339 14.509 11.6581C12.8999 13.2164 11.134 14.5998 9.23318 15.7914L9.02485 15.9173L8.80818 15.7831C6.90068 14.5998 5.12485 13.2164 3.50068 11.6498C2.38402 10.5256 1.52485 9.15808 0.991518 7.65059C0.0498511 4.70059 1.15818 1.32559 4.26735 0.308086C4.50902 0.224752 4.75818 0.166419 5.00818 0.133919H5.10818C5.34235 0.0997524 5.57485 0.0839191 5.80818 0.0839191H5.89985C6.42485 0.0997524 6.93318 0.191419 7.42568 0.358919H7.47485C7.50818 0.374752 7.53318 0.392252 7.54985 0.408086C7.73402 0.467252 7.90818 0.533919 8.07485 0.625586L8.39152 0.767252C8.46804 0.808063 8.55392 0.87042 8.62815 0.924312C8.67518 0.958457 8.71753 0.989203 8.74985 1.00892C8.76345 1.01694 8.77727 1.02501 8.7912 1.03314C8.86265 1.07485 8.93709 1.1183 8.99985 1.16642C9.92568 0.458919 11.0499 0.0755857 12.2082 0.0839191ZM14.4249 6.08392C14.7665 6.07475 15.0582 5.80059 15.0832 5.44975V5.35059C15.1082 4.18309 14.4007 3.12559 13.3249 2.71725C12.9832 2.59975 12.6082 2.78392 12.4832 3.13392C12.3665 3.48392 12.5499 3.86725 12.8999 3.99142C13.434 4.19142 13.7915 4.71725 13.7915 5.29975V5.32559C13.7757 5.51642 13.8332 5.70059 13.9499 5.84225C14.0665 5.98392 14.2415 6.06642 14.4249 6.08392Z" fill="#FF0000"/>
</svg>
