<svg width="180" height="138" viewBox="0 0 180 138" fill="none" xmlns="http://www.w3.org/2000/svg">
<path d="M-45 62.3926C-45 45.8241 -31.5685 32.3926 -15 32.3926H145.094V108C145.094 124.569 131.662 138 115.094 138H-45V62.3926Z" fill="#EEEEEE"/>
<rect x="111.732" y="0.569336" width="67.5888" height="67.5888" rx="33.7944" fill="white"/>
<path d="M151.604 36.9421C151.316 37.2212 151.184 37.6247 151.25 38.0204L152.238 43.4894C152.321 43.9529 152.126 44.422 151.738 44.6899C151.358 44.9678 150.852 45.0011 150.437 44.7788L145.514 42.2111C145.343 42.1199 145.153 42.071 144.958 42.0654H144.657C144.552 42.081 144.45 42.1143 144.357 42.1655L139.433 44.7455C139.189 44.8677 138.913 44.9111 138.643 44.8677C137.985 44.7432 137.546 44.1163 137.654 43.4549L138.643 37.9859C138.709 37.5869 138.577 37.1811 138.289 36.8977L134.275 33.0071C133.939 32.6814 133.822 32.1923 133.976 31.751C134.125 31.3109 134.505 30.9896 134.964 30.9174L140.489 30.1159C140.909 30.0726 141.278 29.8169 141.467 29.439L143.901 24.4479C143.959 24.3368 144.033 24.2345 144.123 24.1478L144.223 24.07C144.276 24.0122 144.336 23.9644 144.402 23.9255L144.524 23.881L144.713 23.8032H145.181C145.598 23.8466 145.966 24.0967 146.159 24.4702L148.625 29.439C148.803 29.8024 149.149 30.0548 149.548 30.1159L155.072 30.9174C155.539 30.9841 155.93 31.3064 156.084 31.751C156.23 32.1968 156.104 32.6859 155.762 33.0071L151.604 36.9421Z" fill="#FFC700"/>
<rect x="-12.2617" y="64.0742" width="124.617" height="8.4486" rx="4.2243" fill="#E0E0E0"/>
<rect x="-12.2617" y="80.9712" width="101.383" height="8.4486" rx="4.2243" fill="#E0E0E0"/>
<rect x="-12.2617" y="97.8687" width="80.2617" height="8.4486" rx="4.2243" fill="#E0E0E0"/>
</svg>
