<svg width="157" height="121" viewBox="0 0 157 121" fill="none" xmlns="http://www.w3.org/2000/svg">
<rect x="33.3645" y="22.5703" width="176.636" height="98.1308" rx="10" fill="#EEEEEE"/>
<rect width="62.8037" height="62.8037" rx="10" fill="white"/>
<path d="M37.0499 33.7976C36.7824 34.0568 36.6595 34.4318 36.7204 34.7995L37.6386 39.8813C37.7161 40.312 37.5343 40.7479 37.1738 40.9968C36.8206 41.255 36.3506 41.286 35.9654 41.0795L31.3907 38.6935C31.2316 38.6088 31.055 38.5633 30.8743 38.5582H30.5943C30.4973 38.5726 30.4022 38.6036 30.3155 38.6511L25.7398 41.0485C25.5136 41.1621 25.2574 41.2024 25.0064 41.1621C24.395 41.0464 23.987 40.4639 24.0872 39.8493L25.0064 34.7675C25.0674 34.3967 24.9444 34.0197 24.6769 33.7563L20.9472 30.1412C20.6352 29.8385 20.5268 29.3841 20.6693 28.974C20.8077 28.565 21.161 28.2665 21.5876 28.1993L26.721 27.4546C27.1114 27.4144 27.4544 27.1768 27.63 26.8256L29.892 22.1879C29.9457 22.0847 30.0149 21.9896 30.0986 21.9091L30.1915 21.8368C30.2401 21.783 30.2958 21.7386 30.3578 21.7025L30.4704 21.6612L30.646 21.5889H31.0808C31.4692 21.6291 31.8111 21.8615 31.9898 22.2086L34.2818 26.8256C34.447 27.1634 34.7682 27.3978 35.139 27.4546L40.2725 28.1993C40.7063 28.2613 41.0689 28.5609 41.2124 28.974C41.3477 29.3882 41.231 29.8427 40.9129 30.1412L37.0499 33.7976Z" fill="#FFC700"/>
<rect x="63.785" y="52.0093" width="115.794" height="7.85047" rx="3.92523" fill="#E0E0E0"/>
<rect x="63.785" y="67.71" width="94.2056" height="7.85047" rx="3.92523" fill="#E0E0E0"/>
<rect x="63.785" y="83.4111" width="74.5794" height="7.85047" rx="3.92523" fill="#E0E0E0"/>
</svg>
