<svg width="59" height="70" viewBox="0 0 59 70" fill="none" xmlns="http://www.w3.org/2000/svg">
<path d="M19.2885 34.8371C14.9678 31.0945 14.1664 24.6953 17.4309 20.0029C20.6955 15.3105 26.974 13.8368 31.9854 16.5866L39.1919 20.5409C45.4703 23.986 47.378 32.113 43.2881 37.9918C39.1982 43.8706 30.9149 44.9079 25.5018 40.219L19.2885 34.8371Z" fill="url(#paint0_linear_15_43)"/>
<g opacity="0.5" filter="url(#filter0_f_15_43)">
<path d="M22.9536 32.5079C20.3996 30.2957 19.926 26.5133 21.8556 23.7396C23.7852 20.966 27.4964 20.0949 30.4586 21.7203L34.7183 24.0576C38.4294 26.094 39.5569 30.8978 37.1395 34.3727C34.722 37.8475 29.8258 38.4606 26.6262 35.6891L22.9536 32.5079Z" fill="#0062FF"/>
</g>
<g filter="url(#filter1_b_15_43)">
<mask id="path-3-outside-1_15_43" maskUnits="userSpaceOnUse" x="4" y="24.1194" width="51" height="46" fill="black">
<rect fill="white" x="4" y="24.1194" width="51" height="46"/>
<path d="M51.9279 50.6588C49.9264 50.6588 48.298 49.0453 48.298 47.0621C48.298 45.0765 49.9264 43.463 51.9279 43.463C52.413 43.463 52.8786 43.2721 53.2199 42.934C53.5636 42.5934 53.7562 42.132 53.7562 41.6513L53.7538 35.1245C53.7538 29.6074 49.2219 25.1194 43.6539 25.1194H15.1023C9.53433 25.1194 5.00244 29.6074 5.00244 35.1245L5 41.8615C5 42.3421 5.19259 42.8035 5.53632 43.1441C5.87761 43.4823 6.34323 43.6731 6.82836 43.6731C8.89806 43.6731 10.4583 45.1297 10.4583 47.0621C10.4583 49.0453 8.8298 50.6588 6.82836 50.6588C5.8191 50.6588 5 51.4705 5 52.4705V58.9924C5 64.5095 9.52945 69 15.0999 69H43.6564C49.2268 69 53.7562 64.5095 53.7562 58.9924V52.4705C53.7562 51.4705 52.9371 50.6588 51.9279 50.6588Z"/>
</mask>
<path d="M51.9279 50.6588C49.9264 50.6588 48.298 49.0453 48.298 47.0621C48.298 45.0765 49.9264 43.463 51.9279 43.463C52.413 43.463 52.8786 43.2721 53.2199 42.934C53.5636 42.5934 53.7562 42.132 53.7562 41.6513L53.7538 35.1245C53.7538 29.6074 49.2219 25.1194 43.6539 25.1194H15.1023C9.53433 25.1194 5.00244 29.6074 5.00244 35.1245L5 41.8615C5 42.3421 5.19259 42.8035 5.53632 43.1441C5.87761 43.4823 6.34323 43.6731 6.82836 43.6731C8.89806 43.6731 10.4583 45.1297 10.4583 47.0621C10.4583 49.0453 8.8298 50.6588 6.82836 50.6588C5.8191 50.6588 5 51.4705 5 52.4705V58.9924C5 64.5095 9.52945 69 15.0999 69H43.6564C49.2268 69 53.7562 64.5095 53.7562 58.9924V52.4705C53.7562 51.4705 52.9371 50.6588 51.9279 50.6588Z" fill="#3EA0FE" fill-opacity="0.35"/>
<path d="M51.9279 51.6588C52.4801 51.6588 52.9279 51.2111 52.9279 50.6588C52.9279 50.1065 52.4801 49.6588 51.9279 49.6588V51.6588ZM53.2199 42.934L52.5161 42.2236L53.2199 42.934ZM53.7562 41.6513H54.7562V41.6509L53.7562 41.6513ZM53.7538 35.1245H52.7538V35.1249L53.7538 35.1245ZM5.00244 35.1245L6.00244 35.1249V35.1245H5.00244ZM5 41.8615L4 41.8611V41.8615H5ZM5.53632 43.1441L6.24017 42.4338L5.53632 43.1441ZM51.9279 49.6588C51.3756 49.6588 50.9279 50.1065 50.9279 50.6588C50.9279 51.2111 51.3756 51.6588 51.9279 51.6588V49.6588ZM51.9279 49.6588C50.47 49.6588 49.298 48.4843 49.298 47.0621H47.298C47.298 49.6062 49.3828 51.6588 51.9279 51.6588V49.6588ZM49.298 47.0621C49.298 45.637 50.4705 44.463 51.9279 44.463V42.463C49.3824 42.463 47.298 44.516 47.298 47.0621H49.298ZM51.9279 44.463C52.6742 44.463 53.3935 44.1698 53.9238 43.6443L52.5161 42.2236C52.3638 42.3745 52.1518 42.463 51.9279 42.463V44.463ZM53.9238 43.6443C54.4561 43.1168 54.7562 42.4001 54.7562 41.6513H52.7562C52.7562 41.8639 52.6712 42.0699 52.5161 42.2236L53.9238 43.6443ZM54.7562 41.6509L54.7538 35.1242L52.7538 35.1249L52.7562 41.6517L54.7562 41.6509ZM54.7538 35.1245C54.7538 29.0462 49.7652 24.1194 43.6539 24.1194V26.1194C48.6786 26.1194 52.7538 30.1687 52.7538 35.1245H54.7538ZM43.6539 24.1194H15.1023V26.1194H43.6539V24.1194ZM15.1023 24.1194C8.99103 24.1194 4.00244 29.0462 4.00244 35.1245H6.00244C6.00244 30.1687 10.0776 26.1194 15.1023 26.1194V24.1194ZM4.00244 35.1242L4 41.8611L6 41.8618L6.00244 35.1249L4.00244 35.1242ZM4 41.8615C4 42.6102 4.30012 43.327 4.83246 43.8544L6.24017 42.4338C6.08505 42.2801 6 42.0741 6 41.8615H4ZM4.83246 43.8544C5.36276 44.3799 6.08207 44.6731 6.82836 44.6731V42.6731C6.6044 42.6731 6.39246 42.5847 6.24017 42.4338L4.83246 43.8544ZM6.82836 44.6731C8.41158 44.6731 9.45826 45.7455 9.45826 47.0621H11.4583C11.4583 44.5138 9.38454 42.6731 6.82836 42.6731V44.6731ZM9.45826 47.0621C9.45826 48.4843 8.28619 49.6588 6.82836 49.6588V51.6588C9.37341 51.6588 11.4583 49.6062 11.4583 47.0621H9.45826ZM6.82836 49.6588C5.27549 49.6588 4 50.9095 4 52.4705H6C6 52.0314 6.36272 51.6588 6.82836 51.6588V49.6588ZM4 52.4705V58.9924H6V52.4705H4ZM4 58.9924C4 65.0703 8.98569 70 15.0999 70V68C10.0732 68 6 63.9487 6 58.9924H4ZM15.0999 70H43.6564V68H15.0999V70ZM43.6564 70C49.7705 70 54.7562 65.0703 54.7562 58.9924H52.7562C52.7562 63.9487 48.683 68 43.6564 68V70ZM54.7562 58.9924V52.4705H52.7562V58.9924H54.7562ZM54.7562 52.4705C54.7562 50.9095 53.4807 49.6588 51.9279 49.6588V51.6588C52.3935 51.6588 52.7562 52.0314 52.7562 52.4705H54.7562Z" fill="url(#paint1_linear_15_43)" mask="url(#path-3-outside-1_15_43)"/>
</g>
<g filter="url(#filter2_bd_15_43)">
<path d="M37.7409 46.0567L34.8668 48.8553L35.5469 52.8119C35.6639 53.4969 35.3885 54.1722 34.8253 54.5769C34.2671 54.9864 33.5382 55.0376 32.9238 54.711L29.3768 52.846L25.8225 54.7134C25.5592 54.8523 25.2715 54.9255 24.9863 54.9255C24.6133 54.9255 24.2452 54.8085 23.9283 54.5793C23.3676 54.1722 23.0921 53.4969 23.2091 52.8119L23.8869 48.8553L21.0127 46.0567C20.5154 45.574 20.3423 44.8646 20.5568 44.204C20.7738 43.5458 21.3345 43.0777 22.0195 42.9802L25.9834 42.4024L27.7605 38.8018C28.0701 38.1826 28.6893 37.7974 29.3768 37.7974H29.3817C30.0716 37.7999 30.6908 38.185 30.9955 38.8042L32.7727 42.4024L36.7439 42.9826C37.4216 43.0777 37.9823 43.5458 38.1968 44.204C38.4138 44.8646 38.2407 45.574 37.7409 46.0567Z" fill="url(#paint2_linear_15_43)"/>
<path d="M37.6712 45.9851L37.6715 45.9848C38.1434 45.529 38.3069 44.8597 38.1018 44.2352L38.1017 44.235C37.899 43.613 37.3698 43.1714 36.73 43.0817L36.7294 43.0816L32.7582 42.5014L32.7063 42.4938L32.683 42.4467L30.9059 38.8485L30.9058 38.8484C30.6179 38.2635 30.0335 37.8998 29.3815 37.8974H29.3768C28.7277 37.8974 28.143 38.2608 27.8501 38.8463C27.8501 38.8464 27.85 38.8465 27.85 38.8465L26.073 42.4467L26.0498 42.4938L25.9978 42.5014L22.0339 43.0792L22.0336 43.0792C21.3862 43.1714 20.8569 43.6132 20.6519 44.2351C20.4491 44.8598 20.6127 45.5292 21.0823 45.985L21.0824 45.9851L23.9566 48.7837L23.9943 48.8204L23.9854 48.8722L23.3077 52.8287C23.3077 52.8288 23.3077 52.8288 23.3077 52.8288C23.1971 53.4762 23.4571 54.1135 23.9869 54.4983C24.2869 54.7152 24.6345 54.8255 24.9863 54.8255C25.2545 54.8255 25.5262 54.7567 25.7758 54.625L25.776 54.6249L29.3303 52.7575L29.3768 52.7331L29.4233 52.7575L32.9704 54.6224L32.9708 54.6227C33.5514 54.9314 34.2391 54.8829 34.7662 54.4962L34.767 54.4957C35.2989 54.1134 35.5589 53.4764 35.4484 52.8288L37.6712 45.9851ZM37.6712 45.9851L34.797 48.7837L34.7593 48.8204L34.7682 48.8723L35.4483 52.8287L37.6712 45.9851Z" stroke="url(#paint3_linear_15_43)" stroke-opacity="0.5" stroke-width="0.2"/>
</g>
<defs>
<filter id="filter0_f_15_43" x="0.671822" y="0.904846" width="57.7451" height="56.5241" filterUnits="userSpaceOnUse" color-interpolation-filters="sRGB">
<feFlood flood-opacity="0" result="BackgroundImageFix"/>
<feBlend mode="normal" in="SourceGraphic" in2="BackgroundImageFix" result="shape"/>
<feGaussianBlur stdDeviation="10" result="effect1_foregroundBlur_15_43"/>
</filter>
<filter id="filter1_b_15_43" x="-20" y="0.119385" width="98.7562" height="93.8806" filterUnits="userSpaceOnUse" color-interpolation-filters="sRGB">
<feFlood flood-opacity="0" result="BackgroundImageFix"/>
<feGaussianBlur in="BackgroundImage" stdDeviation="12"/>
<feComposite in2="SourceAlpha" operator="in" result="effect1_backgroundBlur_15_43"/>
<feBlend mode="normal" in="SourceGraphic" in2="effect1_backgroundBlur_15_43" result="shape"/>
</filter>
<filter id="filter2_bd_15_43" x="5.46637" y="22.7974" width="47.8224" height="47.1281" filterUnits="userSpaceOnUse" color-interpolation-filters="sRGB">
<feFlood flood-opacity="0" result="BackgroundImageFix"/>
<feGaussianBlur in="BackgroundImage" stdDeviation="7.5"/>
<feComposite in2="SourceAlpha" operator="in" result="effect1_backgroundBlur_15_43"/>
<feColorMatrix in="SourceAlpha" type="matrix" values="0 0 0 0 0 0 0 0 0 0 0 0 0 0 0 0 0 0 127 0" result="hardAlpha"/>
<feOffset dx="5" dy="5"/>
<feGaussianBlur stdDeviation="5"/>
<feColorMatrix type="matrix" values="0 0 0 0 0.15375 0 0 0 0 0.522433 0 0 0 0 0.9 0 0 0 0.5 0"/>
<feBlend mode="normal" in2="effect1_backgroundBlur_15_43" result="effect2_dropShadow_15_43"/>
<feBlend mode="normal" in="SourceGraphic" in2="effect2_dropShadow_15_43" result="shape"/>
</filter>
<linearGradient id="paint0_linear_15_43" x1="23.9907" y1="10.574" x2="21.2509" y2="46.2609" gradientUnits="userSpaceOnUse">
<stop stop-color="#39AFFD"/>
<stop offset="1" stop-color="#477FFF"/>
</linearGradient>
<linearGradient id="paint1_linear_15_43" x1="12.7612" y1="30.2315" x2="48.3655" y2="70.5306" gradientUnits="userSpaceOnUse">
<stop stop-color="white" stop-opacity="0.25"/>
<stop offset="1" stop-color="white" stop-opacity="0"/>
</linearGradient>
<linearGradient id="paint2_linear_15_43" x1="37.0251" y1="40.8904" x2="17.1745" y2="41.5639" gradientUnits="userSpaceOnUse">
<stop stop-color="white"/>
<stop offset="1" stop-color="white" stop-opacity="0.2"/>
</linearGradient>
<linearGradient id="paint3_linear_15_43" x1="22.3862" y1="43.5431" x2="37.5198" y2="43.63" gradientUnits="userSpaceOnUse">
<stop stop-color="white"/>
<stop offset="1" stop-color="white" stop-opacity="0"/>
</linearGradient>
</defs>
</svg>
