<svg width="16" height="16" viewBox="0 0 16 16" fill="none" xmlns="http://www.w3.org/2000/svg">
<path fill-rule="evenodd" clip-rule="evenodd" d="M8.76009 2.15896L10.1421 4.91984C10.2775 5.19088 10.5389 5.37882 10.8421 5.42231L13.9337 5.86731C14.6975 5.97759 15.0014 6.90332 14.4486 7.43375L12.2131 9.58188C11.9934 9.79312 11.8934 10.0968 11.9453 10.395L12.4729 13.4277C12.6029 14.1779 11.8044 14.7503 11.1217 14.3954L8.35849 12.9625C8.0876 12.8219 7.76317 12.8219 7.4915 12.9625L4.72833 14.3954C4.04561 14.7503 3.24713 14.1779 3.37785 13.4277L3.90465 10.395C3.95662 10.0968 3.85662 9.79312 3.63692 9.58188L1.40134 7.43375C0.848547 6.90332 1.1525 5.97759 1.91633 5.86731L5.00787 5.42231C5.31104 5.37882 5.57327 5.19088 5.70871 4.91984L7.0899 2.15896C7.43165 1.47631 8.41833 1.47631 8.76009 2.15896Z" stroke="#FFC700" stroke-width="1.5" stroke-linecap="round" stroke-linejoin="round"/>
</svg>
