<svg width="17" height="16" viewBox="0 0 17 16" fill="none" xmlns="http://www.w3.org/2000/svg">
<path d="M12.9758 9.8295C12.78 10.0193 12.69 10.2938 12.7346 10.5631L13.4069 14.2838C13.4636 14.5992 13.3305 14.9183 13.0666 15.1006C12.808 15.2896 12.4639 15.3123 12.1818 15.1611L8.83235 13.4141C8.71589 13.3521 8.58657 13.3188 8.45423 13.3151H8.24928C8.17819 13.3256 8.10862 13.3483 8.04509 13.3831L4.69491 15.1384C4.52929 15.2216 4.34174 15.2511 4.15797 15.2216C3.71027 15.1369 3.41155 14.7103 3.48491 14.2604L4.15797 10.5396C4.20259 10.2681 4.11259 9.99209 3.91673 9.79925L1.18591 7.15237C0.95752 6.93079 0.878113 6.59804 0.982476 6.29781C1.08381 5.99834 1.34245 5.77978 1.65478 5.73062L5.41334 5.18537C5.69921 5.15587 5.95028 4.98194 6.07885 4.72481L7.73503 1.32925C7.77436 1.25362 7.82503 1.18405 7.88628 1.12506L7.95434 1.07212C7.98989 1.0328 8.03073 1.00028 8.0761 0.973812L8.15853 0.943562L8.2871 0.890625H8.60548C8.88983 0.920119 9.14014 1.09028 9.27098 1.34437L10.9491 4.72481C11.0701 4.97211 11.3053 5.14377 11.5768 5.18537L15.3353 5.73062C15.653 5.776 15.9184 5.99531 16.0235 6.29781C16.1226 6.60107 16.0371 6.93382 15.8042 7.15237L12.9758 9.8295Z" fill="#FFC700"/>
</svg>
