<svg width="77" height="78" viewBox="0 0 77 78" fill="none" xmlns="http://www.w3.org/2000/svg">
<g filter="url(#filter0_b_15_114)">
<path d="M63.1707 39.0853C63.1707 52.9399 51.9399 64.1706 38.0853 64.1706C24.2307 64.1706 13 52.9399 13 39.0853C13 25.2332 24.2307 14 38.0853 14C51.9399 14 63.1707 25.2332 63.1707 39.0853Z" fill="url(#paint0_linear_15_114)"/>
</g>
<g filter="url(#filter1_f_15_114)">
<path d="M38.1503 22.7579C29.2424 22.7579 22.0128 29.9891 22.0128 38.8953C22.0128 47.8048 29.2424 55.0328 38.1503 55.0328C47.0743 55.0328 54.2878 47.8048 54.2878 38.8953C54.2878 29.9891 47.0743 22.7579 38.1503 22.7579Z" fill="#FF3D22"/>
</g>
<g filter="url(#filter2_b_15_114)">
<path d="M73 48.9147C73 62.7693 61.7693 74 47.9147 74C34.06 74 22.8293 62.7693 22.8293 48.9147C22.8293 35.0626 34.06 23.8293 47.9147 23.8293C61.7693 23.8293 73 35.0626 73 48.9147Z" fill="#FFAC95" fill-opacity="0.4"/>
<path d="M47.9147 74.5C62.0454 74.5 73.5 63.0454 73.5 48.9147C73.5 34.7864 62.0455 23.3293 47.9147 23.3293C33.7839 23.3293 22.3293 34.7864 22.3293 48.9147C22.3293 63.0454 33.7839 74.5 47.9147 74.5Z" stroke="url(#paint1_linear_15_114)" stroke-linecap="round" stroke-linejoin="round"/>
</g>
<g filter="url(#filter3_bd_15_114)">
<mask id="path-5-inside-1_15_114" fill="white">
<path d="M57.5975 40.0345L53.5336 52.8782C53.3831 53.4049 52.9567 53.8314 52.4299 53.9844L39.6364 57.9956C38.7835 58.274 37.9556 57.4437 38.2316 56.5908L42.2452 43.722C42.3958 43.1952 42.8222 42.7939 43.349 42.6183L56.1927 38.6046C57.0707 38.3287 57.8734 39.1565 57.5975 40.0345Z"/>
</mask>
<path d="M57.5975 40.0345L53.5336 52.8782C53.3831 53.4049 52.9567 53.8314 52.4299 53.9844L39.6364 57.9956C38.7835 58.274 37.9556 57.4437 38.2316 56.5908L42.2452 43.722C42.3958 43.1952 42.8222 42.7939 43.349 42.6183L56.1927 38.6046C57.0707 38.3287 57.8734 39.1565 57.5975 40.0345Z" fill="url(#paint2_linear_15_114)"/>
<path d="M53.5336 52.8782L53.1521 52.7574L53.149 52.7683L53.5336 52.8782ZM52.4299 53.9844L52.3183 53.6002L52.3102 53.6027L52.4299 53.9844ZM39.6364 57.9956L39.5167 57.6139L39.5122 57.6153L39.6364 57.9956ZM38.2316 56.5908L38.6122 56.7139L38.6134 56.7099L38.2316 56.5908ZM42.2452 43.722L42.6272 43.8411L42.6298 43.8319L42.2452 43.722ZM43.349 42.6183L43.2297 42.2364L43.2225 42.2388L43.349 42.6183ZM56.1927 38.6046L56.312 38.9864L56.3126 38.9862L56.1927 38.6046ZM57.2161 39.9138L53.1523 52.7575L53.915 52.9988L57.9788 40.1551L57.2161 39.9138ZM53.149 52.7683C53.0365 53.162 52.7138 53.4854 52.3183 53.6003L52.5415 54.3685C53.1996 54.1774 53.7297 53.6479 53.9182 52.988L53.149 52.7683ZM52.3102 53.6027L39.5167 57.6139L39.756 58.3772L52.5495 54.3661L52.3102 53.6027ZM39.5122 57.6153C38.9721 57.7916 38.4362 57.2579 38.6122 56.7139L37.851 56.4677C37.4751 57.6294 38.5948 58.7564 39.7605 58.3758L39.5122 57.6153ZM38.6134 56.7099L42.6271 43.8411L41.8634 43.6029L37.8497 56.4717L38.6134 56.7099ZM42.6298 43.8319C42.7393 43.449 43.0563 43.1375 43.4755 42.9977L43.2225 42.2388C42.5881 42.4503 42.0522 42.9415 41.8606 43.6121L42.6298 43.8319ZM43.4683 43L56.312 38.9864L56.0734 38.2228L43.2297 42.2365L43.4683 43ZM56.3126 38.9862C56.8698 38.8111 57.3988 39.3326 57.2159 39.9145L57.9791 40.1544C58.348 38.9804 57.2715 37.8463 56.0727 38.223L56.3126 38.9862Z" fill="url(#paint3_linear_15_114)" mask="url(#path-5-inside-1_15_114)"/>
</g>
<defs>
<filter id="filter0_b_15_114" x="0" y="1" width="76.1707" height="76.1707" filterUnits="userSpaceOnUse" color-interpolation-filters="sRGB">
<feFlood flood-opacity="0" result="BackgroundImageFix"/>
<feGaussianBlur in="BackgroundImage" stdDeviation="6.5"/>
<feComposite in2="SourceAlpha" operator="in" result="effect1_backgroundBlur_15_114"/>
<feBlend mode="normal" in="SourceGraphic" in2="effect1_backgroundBlur_15_114" result="shape"/>
</filter>
<filter id="filter1_f_15_114" x="0.0128479" y="0.757874" width="76.2749" height="76.2749" filterUnits="userSpaceOnUse" color-interpolation-filters="sRGB">
<feFlood flood-opacity="0" result="BackgroundImageFix"/>
<feBlend mode="normal" in="SourceGraphic" in2="BackgroundImageFix" result="shape"/>
<feGaussianBlur stdDeviation="11" result="effect1_foregroundBlur_15_114"/>
</filter>
<filter id="filter2_b_15_114" x="6.82935" y="7.82935" width="82.1707" height="82.1707" filterUnits="userSpaceOnUse" color-interpolation-filters="sRGB">
<feFlood flood-opacity="0" result="BackgroundImageFix"/>
<feGaussianBlur in="BackgroundImage" stdDeviation="7.5"/>
<feComposite in2="SourceAlpha" operator="in" result="effect1_backgroundBlur_15_114"/>
<feBlend mode="normal" in="SourceGraphic" in2="effect1_backgroundBlur_15_114" result="shape"/>
</filter>
<filter id="filter3_bd_15_114" x="23.1775" y="23.5506" width="49.4752" height="49.4998" filterUnits="userSpaceOnUse" color-interpolation-filters="sRGB">
<feFlood flood-opacity="0" result="BackgroundImageFix"/>
<feGaussianBlur in="BackgroundImage" stdDeviation="7.5"/>
<feComposite in2="SourceAlpha" operator="in" result="effect1_backgroundBlur_15_114"/>
<feColorMatrix in="SourceAlpha" type="matrix" values="0 0 0 0 0 0 0 0 0 0 0 0 0 0 0 0 0 0 127 0" result="hardAlpha"/>
<feOffset dx="5" dy="5"/>
<feGaussianBlur stdDeviation="5"/>
<feColorMatrix type="matrix" values="0 0 0 0 1 0 0 0 0 0.447059 0 0 0 0 0.368627 0 0 0 0.3 0"/>
<feBlend mode="normal" in2="effect1_backgroundBlur_15_114" result="effect2_dropShadow_15_114"/>
<feBlend mode="normal" in="SourceGraphic" in2="effect2_dropShadow_15_114" result="shape"/>
</filter>
<linearGradient id="paint0_linear_15_114" x1="41.7789" y1="42.445" x2="-2.30556" y2="63.8798" gradientUnits="userSpaceOnUse">
<stop stop-color="#FFA78F"/>
<stop offset="1" stop-color="#F23E2C"/>
</linearGradient>
<linearGradient id="paint1_linear_15_114" x1="30.8157" y1="29.6743" x2="62.8192" y2="69.3114" gradientUnits="userSpaceOnUse">
<stop stop-color="white" stop-opacity="0.25"/>
<stop offset="1" stop-color="white" stop-opacity="0"/>
</linearGradient>
<linearGradient id="paint2_linear_15_114" x1="48.1443" y1="41.9522" x2="44.6805" y2="56.906" gradientUnits="userSpaceOnUse">
<stop stop-color="white"/>
<stop offset="1" stop-color="white" stop-opacity="0.2"/>
</linearGradient>
<linearGradient id="paint3_linear_15_114" x1="41.2777" y1="40.8223" x2="53.7197" y2="56.2127" gradientUnits="userSpaceOnUse">
<stop stop-color="white" stop-opacity="0.25"/>
<stop offset="1" stop-color="white" stop-opacity="0"/>
</linearGradient>
</defs>
</svg>
