<svg width="78" height="75" viewBox="0 0 78 75" fill="none" xmlns="http://www.w3.org/2000/svg">
<path d="M49.0783 13.6601C46.3355 12.2331 43.1369 11.9871 40.2225 12.9666L20.9978 18.1178C17.9636 18.7323 15.3166 20.5446 13.6547 23.1519C12.2277 25.8948 11.9817 29.0933 12.9666 32.0282L18.1178 51.2528C18.7323 54.2869 20.5446 56.934 23.1519 58.5958C25.8948 60.0228 29.0933 60.2688 32.0282 59.2839L51.2529 54.1326C54.2666 53.5237 56.9342 51.7059 58.5961 49.0986C60.0026 46.3612 60.2691 43.1572 59.2842 40.2223L54.133 20.9977C53.4979 17.9691 51.6856 15.322 49.0783 13.6601" fill="url(#paint0_linear_15_92)"/>
<g opacity="0.5" filter="url(#filter0_f_15_92)">
<path d="M39.3726 19.0779L24.8747 23.1219C19.6159 24.5888 17.3093 28.1504 18.6034 32.7897L22.9862 48.5023C24.3015 53.2177 28.1016 55.0103 33.3604 53.5434L47.8583 49.4994C53.2018 48.0089 55.4389 44.5323 54.1236 39.817L49.7407 24.1043C48.4467 19.465 44.7161 17.5874 39.3726 19.0779Z" fill="#30AD31"/>
</g>
<g filter="url(#filter1_b_15_92)">
<mask id="path-3-outside-1_15_92" maskUnits="userSpaceOnUse" x="24.3316" y="22.6279" width="49" height="49" fill="black">
<rect fill="white" x="24.3316" y="22.6279" width="49" height="49"/>
<path d="M68.4373 26.8714C65.959 24.6015 62.6699 23.4434 59.3346 23.6519H37.701C34.3425 23.4434 31.0534 24.6015 28.5751 26.8714C26.3052 29.3498 25.1471 32.6388 25.3555 35.9973V57.6307C25.1471 60.9892 26.3052 64.2782 28.5751 66.7565C31.0534 69.0264 34.3425 70.1845 37.701 69.976H59.3346C62.6699 70.1845 65.9821 69.0264 68.4605 66.7565C70.7072 64.2782 71.8885 60.9892 71.6801 57.6307V35.9973C71.8654 32.6388 70.7072 29.3498 68.4373 26.8714"/>
</mask>
<path d="M68.4373 26.8714C65.959 24.6015 62.6699 23.4434 59.3346 23.6519H37.701C34.3425 23.4434 31.0534 24.6015 28.5751 26.8714C26.3052 29.3498 25.1471 32.6388 25.3555 35.9973V57.6307C25.1471 60.9892 26.3052 64.2782 28.5751 66.7565C31.0534 69.0264 34.3425 70.1845 37.701 69.976H59.3346C62.6699 70.1845 65.9821 69.0264 68.4605 66.7565C70.7072 64.2782 71.8885 60.9892 71.6801 57.6307V35.9973C71.8654 32.6388 70.7072 29.3498 68.4373 26.8714" fill="#72DC60" fill-opacity="0.35"/>
<path d="M67.7619 27.6089C68.1692 27.9819 68.8018 27.9541 69.1748 27.5468C69.5478 27.1396 69.52 26.507 69.1127 26.134L67.7619 27.6089ZM59.3346 23.6519V24.6519C59.3554 24.6519 59.3762 24.6512 59.3969 24.6499L59.3346 23.6519ZM37.701 23.6519L37.6391 24.65C37.6597 24.6513 37.6803 24.6519 37.701 24.6519V23.6519ZM28.5751 26.8714L27.8997 26.134C27.8781 26.1537 27.8574 26.1744 27.8376 26.196L28.5751 26.8714ZM25.3555 35.9973H26.3555C26.3555 35.9766 26.3549 35.956 26.3536 35.9353L25.3555 35.9973ZM25.3555 57.6307L26.3536 57.6926C26.3549 57.672 26.3555 57.6513 26.3555 57.6307H25.3555ZM28.5751 66.7565L27.8376 67.4319C27.8574 67.4535 27.8781 67.4742 27.8997 67.494L28.5751 66.7565ZM37.701 69.976V68.976C37.6803 68.976 37.6597 68.9767 37.6391 68.978L37.701 69.976ZM59.3346 69.976L59.3969 68.978C59.3762 68.9767 59.3554 68.976 59.3346 68.976V69.976ZM68.4605 66.7565L69.1359 67.494C69.1587 67.473 69.1806 67.4511 69.2014 67.4282L68.4605 66.7565ZM71.6801 57.6307H70.6801C70.6801 57.6513 70.6807 57.672 70.682 57.6926L71.6801 57.6307ZM71.6801 35.9973L70.6816 35.9422C70.6806 35.9605 70.6801 35.9789 70.6801 35.9973H71.6801ZM69.1748 26.196C68.8018 25.7887 68.1692 25.761 67.7619 26.134C67.3546 26.507 67.3269 27.1396 67.6999 27.5468L69.1748 26.196ZM69.1127 26.134C66.4341 23.6807 62.8787 22.4284 59.2722 22.6538L59.3969 24.6499C62.4611 24.4584 65.4839 25.5224 67.7619 27.6089L69.1127 26.134ZM59.3346 22.6519H37.701V24.6519H59.3346V22.6519ZM37.763 22.6538C34.1346 22.4286 30.5791 23.68 27.8997 26.134L29.2505 27.6089C31.5278 25.5231 34.5504 24.4583 37.6391 24.65L37.763 22.6538ZM27.8376 26.196C25.3836 28.8754 24.1322 32.4309 24.3575 36.0592L26.3536 35.9353C26.1619 32.8467 27.2267 29.8241 29.3125 27.5468L27.8376 26.196ZM24.3555 35.9973V57.6307H26.3555V35.9973H24.3555ZM24.3575 57.5687C24.1322 61.1971 25.3836 64.7526 27.8376 67.4319L29.3125 66.0811C27.2267 63.8038 26.1619 60.7812 26.3536 57.6926L24.3575 57.5687ZM27.8997 67.494C30.5791 69.948 34.1346 71.1993 37.763 70.9741L37.6391 68.978C34.5504 69.1697 31.5278 68.1048 29.2505 66.0191L27.8997 67.494ZM37.701 70.976H59.3346V68.976H37.701V70.976ZM59.2722 70.9741C62.877 71.1994 66.456 69.9484 69.1359 67.494L67.7851 66.0191C65.5083 68.1044 62.4628 69.1696 59.3969 68.978L59.2722 70.9741ZM69.2014 67.4282C71.6259 64.7537 72.9036 61.2014 72.6781 57.5687L70.682 57.6926C70.8734 60.7769 69.7886 63.8027 67.7196 66.0849L69.2014 67.4282ZM72.6801 57.6307V35.9973H70.6801V57.6307H72.6801ZM72.6785 36.0524C72.8785 32.4288 71.6289 28.8755 69.1748 26.196L67.6999 27.5468C69.7856 29.824 70.8522 32.8487 70.6816 35.9422L72.6785 36.0524Z" fill="url(#paint1_linear_15_92)" mask="url(#path-3-outside-1_15_92)"/>
</g>
<g filter="url(#filter2_bd_15_92)">
<mask id="path-5-inside-2_15_92" fill="white">
<path d="M61.7421 42.4141L46.1539 58.0485C45.3433 58.836 44.2778 59.2761 43.166 59.2761H37.7229C37.4218 59.2761 37.1438 59.1603 36.9354 58.9519C36.7269 58.7434 36.6343 58.4654 36.6343 58.1643L36.7732 52.6749C36.7964 51.5863 37.2365 50.5672 38.0008 49.8028L49.0492 38.7545C49.2345 38.5692 49.5588 38.5692 49.7441 38.7545L53.6122 42.5994C53.867 42.8542 54.2376 43.0163 54.6313 43.0163C55.4883 43.0163 56.16 42.3215 56.16 41.4877C56.16 41.0707 55.9979 40.7001 55.7431 40.4222C55.6736 40.3295 51.9908 36.6699 51.9908 36.6699C51.7592 36.4383 51.7592 36.0446 51.9908 35.8129L53.5427 34.2379C54.9788 32.8019 57.295 32.8019 58.7311 34.2379L61.7421 37.249C63.155 38.6619 63.155 40.9781 61.7421 42.4141"/>
</mask>
<path d="M61.7421 42.4141L46.1539 58.0485C45.3433 58.836 44.2778 59.2761 43.166 59.2761H37.7229C37.4218 59.2761 37.1438 59.1603 36.9354 58.9519C36.7269 58.7434 36.6343 58.4654 36.6343 58.1643L36.7732 52.6749C36.7964 51.5863 37.2365 50.5672 38.0008 49.8028L49.0492 38.7545C49.2345 38.5692 49.5588 38.5692 49.7441 38.7545L53.6122 42.5994C53.867 42.8542 54.2376 43.0163 54.6313 43.0163C55.4883 43.0163 56.16 42.3215 56.16 41.4877C56.16 41.0707 55.9979 40.7001 55.7431 40.4222C55.6736 40.3295 51.9908 36.6699 51.9908 36.6699C51.7592 36.4383 51.7592 36.0446 51.9908 35.8129L53.5427 34.2379C54.9788 32.8019 57.295 32.8019 58.7311 34.2379L61.7421 37.249C63.155 38.6619 63.155 40.9781 61.7421 42.4141" fill="url(#paint2_linear_15_92)"/>
<path d="M46.1539 58.0485L46.2933 58.192L46.2956 58.1897L46.1539 58.0485ZM36.6343 58.1643L36.4343 58.1593V58.1643H36.6343ZM36.7732 52.6749L36.9732 52.68L36.9732 52.6792L36.7732 52.6749ZM38.0008 49.8028L38.1423 49.9443L38.0008 49.8028ZM49.0492 38.7545L48.9078 38.6131L49.0492 38.7545ZM49.7441 38.7545L49.6027 38.896L49.6031 38.8964L49.7441 38.7545ZM53.6122 42.5994L53.7536 42.458L53.7532 42.4576L53.6122 42.5994ZM55.7431 40.4222L55.5831 40.5422L55.589 40.5501L55.5957 40.5573L55.7431 40.4222ZM51.9908 36.6699L51.8494 36.8114L51.8499 36.8118L51.9908 36.6699ZM51.9908 35.8129L52.1323 35.9544L52.1333 35.9533L51.9908 35.8129ZM53.5427 34.2379L53.4013 34.0965L53.4002 34.0976L53.5427 34.2379ZM58.7311 34.2379L58.5896 34.3793L58.7311 34.2379ZM61.7421 37.249L61.8836 37.1076L61.7421 37.249ZM61.6005 42.2729L46.0123 57.9073L46.2956 58.1897L61.8838 42.5553L61.6005 42.2729ZM46.0146 57.9051C45.2402 58.6573 44.2244 59.0761 43.166 59.0761V59.4761C44.3312 59.4761 45.4463 59.0148 46.2933 58.192L46.0146 57.9051ZM43.166 59.0761H37.7229V59.4761H43.166V59.0761ZM37.7229 59.0761C37.4745 59.0761 37.2475 58.9812 37.0768 58.8104L36.794 59.0933C37.0401 59.3394 37.369 59.4761 37.7229 59.4761V59.0761ZM37.0768 58.8104C36.9134 58.647 36.8343 58.4241 36.8343 58.1643H36.4343C36.4343 58.5068 36.5405 58.8398 36.794 59.0933L37.0768 58.8104ZM36.8342 58.1694L36.9732 52.68L36.5733 52.6699L36.4343 58.1593L36.8342 58.1694ZM36.9732 52.6792C36.9952 51.6426 37.4141 50.6725 38.1423 49.9443L37.8594 49.6614C37.0589 50.4619 36.5975 51.5301 36.5733 52.6707L36.9732 52.6792ZM38.1423 49.9443L49.1907 38.896L48.9078 38.6131L37.8594 49.6614L38.1423 49.9443ZM49.1907 38.896C49.2978 38.7888 49.4955 38.7888 49.6027 38.896L49.8855 38.6131C49.6221 38.3497 49.1712 38.3497 48.9078 38.6131L49.1907 38.896ZM49.6031 38.8964L53.4712 42.7413L53.7532 42.4576L49.8851 38.6127L49.6031 38.8964ZM53.4708 42.7409C53.7626 43.0327 54.1839 43.2163 54.6313 43.2163V42.8163C54.2912 42.8163 53.9713 42.6757 53.7536 42.458L53.4708 42.7409ZM54.6313 43.2163C55.6008 43.2163 56.36 42.43 56.36 41.4877H55.96C55.96 42.213 55.3759 42.8163 54.6313 42.8163V43.2163ZM56.36 41.4877C56.36 41.0172 56.1767 40.5992 55.8906 40.2871L55.5957 40.5573C55.8191 40.801 55.96 41.1242 55.96 41.4877H56.36ZM55.9031 40.3022C55.8892 40.2836 55.8584 40.2517 55.8334 40.2259C55.8019 40.1932 55.7582 40.1486 55.7044 40.094C55.5966 39.9846 55.4467 39.8337 55.2691 39.6556C54.9139 39.2993 54.4469 38.833 53.9821 38.3697C53.5174 37.9064 53.0548 37.446 52.7084 37.1014C52.5352 36.9291 52.3911 36.7858 52.2902 36.6855C52.2398 36.6354 52.2002 36.596 52.1732 36.5692C52.1597 36.5558 52.1494 36.5455 52.1424 36.5386C52.1389 36.5351 52.1363 36.5325 52.1345 36.5307C52.1336 36.5299 52.1329 36.5292 52.1325 36.5287C52.1323 36.5285 52.1321 36.5284 52.132 36.5282C52.1319 36.5282 52.1319 36.5281 52.1319 36.5281C52.1318 36.5281 52.1318 36.5281 51.9908 36.6699C51.8499 36.8118 51.8499 36.8118 51.8499 36.8119C51.8499 36.8119 51.85 36.8119 51.85 36.812C51.8501 36.8121 51.8503 36.8123 51.8505 36.8125C51.851 36.8129 51.8516 36.8136 51.8525 36.8145C51.8543 36.8162 51.8569 36.8188 51.8604 36.8223C51.8674 36.8292 51.8777 36.8395 51.8912 36.8529C51.9182 36.8797 51.9578 36.9191 52.0082 36.9692C52.109 37.0694 52.2532 37.2127 52.4263 37.385C52.7726 37.7295 53.2351 38.1898 53.6997 38.653C54.1644 39.1162 54.6311 39.5821 54.9859 39.938C55.1633 40.116 55.3126 40.2662 55.4195 40.3748C55.473 40.4291 55.5156 40.4726 55.5456 40.5037C55.5823 40.5416 55.5884 40.5492 55.5831 40.5422L55.9031 40.3022ZM52.1323 36.5285C51.9787 36.375 51.9787 36.1079 52.1323 35.9544L51.8494 35.6715C51.5397 35.9812 51.5397 36.5016 51.8494 36.8114L52.1323 36.5285ZM52.1333 35.9533L53.6852 34.3783L53.4002 34.0976L51.8484 35.6726L52.1333 35.9533ZM53.6841 34.3793C55.0421 33.0214 57.2317 33.0214 58.5896 34.3793L58.8725 34.0965C57.3583 32.5824 54.9155 32.5824 53.4013 34.0965L53.6841 34.3793ZM58.5896 34.3793L61.6007 37.3904L61.8836 37.1076L58.8725 34.0965L58.5896 34.3793ZM61.6007 37.3904C62.9349 38.7246 62.9365 40.915 61.5996 42.2739L61.8847 42.5544C63.3736 41.0412 63.3752 38.5992 61.8836 37.1076L61.6007 37.3904Z" fill="url(#paint3_linear_15_92)" fill-opacity="0.5" mask="url(#path-5-inside-2_15_92)"/>
</g>
<defs>
<filter id="filter0_f_15_92" x="0.250717" y="0.576416" width="72.241" height="71.4659" filterUnits="userSpaceOnUse" color-interpolation-filters="sRGB">
<feFlood flood-opacity="0" result="BackgroundImageFix"/>
<feBlend mode="normal" in="SourceGraphic" in2="BackgroundImageFix" result="shape"/>
<feGaussianBlur stdDeviation="9" result="effect1_foregroundBlur_15_92"/>
</filter>
<filter id="filter1_b_15_92" x="0.331566" y="-1.37207" width="96.3721" height="96.3721" filterUnits="userSpaceOnUse" color-interpolation-filters="sRGB">
<feFlood flood-opacity="0" result="BackgroundImageFix"/>
<feGaussianBlur in="BackgroundImage" stdDeviation="12"/>
<feComposite in2="SourceAlpha" operator="in" result="effect1_backgroundBlur_15_92"/>
<feBlend mode="normal" in="SourceGraphic" in2="effect1_backgroundBlur_15_92" result="shape"/>
</filter>
<filter id="filter2_bd_15_92" x="21.6343" y="18.1609" width="56.1676" height="56.1152" filterUnits="userSpaceOnUse" color-interpolation-filters="sRGB">
<feFlood flood-opacity="0" result="BackgroundImageFix"/>
<feGaussianBlur in="BackgroundImage" stdDeviation="7.5"/>
<feComposite in2="SourceAlpha" operator="in" result="effect1_backgroundBlur_15_92"/>
<feColorMatrix in="SourceAlpha" type="matrix" values="0 0 0 0 0 0 0 0 0 0 0 0 0 0 0 0 0 0 127 0" result="hardAlpha"/>
<feOffset dx="5" dy="5"/>
<feGaussianBlur stdDeviation="5"/>
<feColorMatrix type="matrix" values="0 0 0 0 0.454902 0 0 0 0 0.870588 0 0 0 0 0.376471 0 0 0 0.5 0"/>
<feBlend mode="normal" in2="effect1_backgroundBlur_15_92" result="effect2_dropShadow_15_92"/>
<feBlend mode="normal" in="SourceGraphic" in2="effect2_dropShadow_15_92" result="shape"/>
</filter>
<linearGradient id="paint0_linear_15_92" x1="51.2086" y1="10" x2="31.2583" y2="51.7679" gradientUnits="userSpaceOnUse">
<stop stop-color="#9BF763"/>
<stop offset="1" stop-color="#26AB5B"/>
</linearGradient>
<linearGradient id="paint1_linear_15_92" x1="32.7132" y1="29.0303" x2="62.2937" y2="65.6664" gradientUnits="userSpaceOnUse">
<stop stop-color="white" stop-opacity="0.25"/>
<stop offset="1" stop-color="white" stop-opacity="0"/>
</linearGradient>
<linearGradient id="paint2_linear_15_92" x1="60.9466" y1="37.8768" x2="31.7985" y2="38.829" gradientUnits="userSpaceOnUse">
<stop stop-color="white"/>
<stop offset="1" stop-color="white" stop-opacity="0.2"/>
</linearGradient>
<linearGradient id="paint3_linear_15_92" x1="39.4531" y1="41.9213" x2="61.673" y2="42.0442" gradientUnits="userSpaceOnUse">
<stop stop-color="white"/>
<stop offset="1" stop-color="white" stop-opacity="0"/>
</linearGradient>
</defs>
</svg>
